<mxfile host="app.diagrams.net" agent="Mozilla/5.0 (Windows NT 10.0; Win64; x64) AppleWebKit/537.36 (KHTML, like Gecko) Chrome/135.0.0.0 Safari/537.36 Edg/135.0.0.0" version="26.2.15">
  <diagram name="Page-1" id="7RQ5qrS7RT-U-DfGkurS">
    <mxGraphModel dx="2836" dy="2672" grid="1" gridSize="10" guides="1" tooltips="1" connect="1" arrows="1" fold="1" page="1" pageScale="1" pageWidth="850" pageHeight="1100" math="0" shadow="0">
      <root>
        <mxCell id="0" />
        <mxCell id="1" parent="0" />
        <mxCell id="ZR_jUo90vnNanJmPOccp-7" style="edgeStyle=orthogonalEdgeStyle;rounded=0;orthogonalLoop=1;jettySize=auto;html=1;entryX=0.5;entryY=0;entryDx=0;entryDy=0;" parent="1" source="ZR_jUo90vnNanJmPOccp-1" target="ZR_jUo90vnNanJmPOccp-2" edge="1">
          <mxGeometry relative="1" as="geometry" />
        </mxCell>
        <mxCell id="ZR_jUo90vnNanJmPOccp-1" value="START" style="ellipse;whiteSpace=wrap;html=1;" parent="1" vertex="1">
          <mxGeometry x="340" y="-20" width="120" height="80" as="geometry" />
        </mxCell>
        <mxCell id="ZR_jUo90vnNanJmPOccp-8" style="edgeStyle=orthogonalEdgeStyle;rounded=0;orthogonalLoop=1;jettySize=auto;html=1;" parent="1" source="ZR_jUo90vnNanJmPOccp-2" target="ZR_jUo90vnNanJmPOccp-3" edge="1">
          <mxGeometry relative="1" as="geometry" />
        </mxCell>
        <mxCell id="ZR_jUo90vnNanJmPOccp-2" value="BATTLE&lt;div&gt;START&lt;/div&gt;" style="ellipse;whiteSpace=wrap;html=1;" parent="1" vertex="1">
          <mxGeometry x="340" y="120" width="120" height="80" as="geometry" />
        </mxCell>
        <mxCell id="ZR_jUo90vnNanJmPOccp-9" style="edgeStyle=orthogonalEdgeStyle;rounded=0;orthogonalLoop=1;jettySize=auto;html=1;entryX=0.5;entryY=0;entryDx=0;entryDy=0;" parent="1" source="ZR_jUo90vnNanJmPOccp-3" target="ZR_jUo90vnNanJmPOccp-4" edge="1">
          <mxGeometry relative="1" as="geometry" />
        </mxCell>
        <mxCell id="ZR_jUo90vnNanJmPOccp-3" value="ENVIRONMENT" style="ellipse;whiteSpace=wrap;html=1;" parent="1" vertex="1">
          <mxGeometry x="340" y="270" width="120" height="80" as="geometry" />
        </mxCell>
        <mxCell id="ZR_jUo90vnNanJmPOccp-10" style="edgeStyle=orthogonalEdgeStyle;rounded=0;orthogonalLoop=1;jettySize=auto;html=1;" parent="1" source="ZR_jUo90vnNanJmPOccp-4" target="ZR_jUo90vnNanJmPOccp-5" edge="1">
          <mxGeometry relative="1" as="geometry" />
        </mxCell>
        <mxCell id="ZR_jUo90vnNanJmPOccp-4" value="PLAYER" style="ellipse;whiteSpace=wrap;html=1;" parent="1" vertex="1">
          <mxGeometry x="340" y="410" width="120" height="80" as="geometry" />
        </mxCell>
        <mxCell id="ZR_jUo90vnNanJmPOccp-11" style="edgeStyle=orthogonalEdgeStyle;rounded=0;orthogonalLoop=1;jettySize=auto;html=1;entryX=0.5;entryY=0;entryDx=0;entryDy=0;" parent="1" source="ZR_jUo90vnNanJmPOccp-5" target="ZR_jUo90vnNanJmPOccp-6" edge="1">
          <mxGeometry relative="1" as="geometry" />
        </mxCell>
        <mxCell id="ZR_jUo90vnNanJmPOccp-5" value="ENEMY" style="ellipse;whiteSpace=wrap;html=1;" parent="1" vertex="1">
          <mxGeometry x="340" y="570" width="120" height="80" as="geometry" />
        </mxCell>
        <mxCell id="ZR_jUo90vnNanJmPOccp-12" style="edgeStyle=orthogonalEdgeStyle;rounded=0;orthogonalLoop=1;jettySize=auto;html=1;entryX=1;entryY=0.5;entryDx=0;entryDy=0;" parent="1" source="ZR_jUo90vnNanJmPOccp-6" target="ZR_jUo90vnNanJmPOccp-2" edge="1">
          <mxGeometry relative="1" as="geometry">
            <Array as="points">
              <mxPoint x="550" y="760" />
              <mxPoint x="550" y="160" />
            </Array>
          </mxGeometry>
        </mxCell>
        <mxCell id="ZR_jUo90vnNanJmPOccp-6" value="POST&lt;div&gt;ROUND&lt;/div&gt;" style="ellipse;whiteSpace=wrap;html=1;" parent="1" vertex="1">
          <mxGeometry x="340" y="720" width="120" height="80" as="geometry" />
        </mxCell>
        <mxCell id="sWdN7_v8OOwcavodkP-h-1" value="Floor" style="rounded=1;whiteSpace=wrap;html=1;" vertex="1" parent="1">
          <mxGeometry x="1210" y="390" width="670" height="60" as="geometry" />
        </mxCell>
        <mxCell id="sWdN7_v8OOwcavodkP-h-2" value="Enemy" style="ellipse;whiteSpace=wrap;html=1;aspect=fixed;" vertex="1" parent="1">
          <mxGeometry x="1730" y="290" width="80" height="80" as="geometry" />
        </mxCell>
        <mxCell id="sWdN7_v8OOwcavodkP-h-3" value="PLAYER" style="rhombus;whiteSpace=wrap;html=1;" vertex="1" parent="1">
          <mxGeometry x="1240" y="290" width="80" height="80" as="geometry" />
        </mxCell>
        <mxCell id="sWdN7_v8OOwcavodkP-h-4" value="" style="whiteSpace=wrap;html=1;" vertex="1" parent="1">
          <mxGeometry x="1020" y="570" width="170" height="250" as="geometry" />
        </mxCell>
        <mxCell id="sWdN7_v8OOwcavodkP-h-5" value="" style="whiteSpace=wrap;html=1;" vertex="1" parent="1">
          <mxGeometry x="1240" y="570" width="170" height="250" as="geometry" />
        </mxCell>
        <mxCell id="sWdN7_v8OOwcavodkP-h-6" value="" style="whiteSpace=wrap;html=1;" vertex="1" parent="1">
          <mxGeometry x="1460" y="570" width="170" height="250" as="geometry" />
        </mxCell>
        <mxCell id="sWdN7_v8OOwcavodkP-h-7" value="" style="whiteSpace=wrap;html=1;" vertex="1" parent="1">
          <mxGeometry x="1680" y="570" width="170" height="250" as="geometry" />
        </mxCell>
        <mxCell id="sWdN7_v8OOwcavodkP-h-8" value="" style="whiteSpace=wrap;html=1;" vertex="1" parent="1">
          <mxGeometry x="1900" y="570" width="170" height="250" as="geometry" />
        </mxCell>
      </root>
    </mxGraphModel>
  </diagram>
</mxfile>
